<?xml version="1.0" encoding="iso-8859-1"?>
<!-- Generator: Adobe Illustrator 19.0.0, SVG Export Plug-In . SVG Version: 6.00 Build 0)  -->
<svg version="1.1" id="Capa_1" xmlns="http://www.w3.org/2000/svg" xmlns:xlink="http://www.w3.org/1999/xlink" x="0px" y="0px"
	 viewBox="0 0 438.699 438.699" style="enable-background:new 0 0 438.699 438.699;" xml:space="preserve">
<g>
	<g>
		<path style="fill:#1B1B1B;" d="M423.949,18.519c-22-23.6-65.6-20.4-118,3.2c-14,6.4-28.8,14-44,23.2c-13.6-3.2-28-5.2-42.4-5.2
			c-49.6,0-94.4,20-126.8,52.4c-32.4,32.8-52.4,77.6-52.4,127.2c0,13.6,1.6,26.8,4.4,39.2c-9.6,14.8-17.6,29.6-24,43.6
			c-24.4,52-28.4,95.6-6,118.4c22.4,23.2,66.4,20,118.4-3.6c14-6.4,28.8-14,43.6-23.2c13.6,3.2,28,5.2,42.4,5.2
			c49.6,0,94.4-20,126.8-52.4c32.4-32.4,52.4-77.2,52.4-126.8c0-13.6-1.6-26.8-4.4-39.2c9.6-14.8,17.6-29.6,24-43.6
			C442.349,84.919,446.349,41.319,423.949,18.519z M104.749,104.519c29.2-29.2,70-47.6,114.8-47.6s85.6,18,114.8,47.6
			c10,10,18.8,21.2,25.6,33.6c-1.6,4.4-3.6,8.8-5.6,13.2c-16.8,35.2-47.2,76.8-87.2,116.4c-40,39.2-82.4,69.2-118,85.2
			c-4.8,2-9.2,4-13.6,5.6c-11.2-6.8-21.6-14.8-31.2-24.4c-28.8-29.2-47.2-70-47.2-114.8S75.549,133.719,104.749,104.519z
			 M324.749,74.119c16.4-3.2,29.6-1.6,36.8,6c7.2,7.2,8.8,20.4,5.2,36.8c-6-8.8-12.8-16.8-20.4-24.4
			C339.549,85.719,332.349,79.719,324.749,74.119z M114.349,364.519c-16.4,3.2-29.6,1.6-36.8-6c-7.2-7.2-8.8-20.4-5.2-36.8
			c6,8.8,12.8,16.8,20.4,24.4C99.549,352.919,106.749,358.919,114.349,364.519z M334.349,334.119c-29.2,29.2-70,47.6-114.8,47.6
			c-7.2,0-14.4-0.4-21.6-1.6c32.4-21.6,66-49.2,98.8-81.2l0.4-0.4c32.8-32.4,61.2-65.6,83.6-98c0.8,6.4,1.2,12.4,1.2,18.8
			C381.949,264.119,363.949,304.919,334.349,334.119z M285.149,286.519l-0.4,0.4c-54,52.8-110.8,92.8-158.8,114.4
			c-45.6,20.8-82.4,24.8-99.6,7.2c-17.2-17.2-12.4-54,9.2-99.2c4.4-9.2,9.6-18.8,15.2-28.4c2.8,7.2,6,14.4,9.6,21.2
			c-10,29.6-9.2,54,5.2,68.4c17.6,18,50.8,15.6,90.8-2.4c37.2-16.8,81.2-47.6,122.8-88.4c41.6-40.8,73.2-84,90.8-121.2
			c18.8-39.6,21.6-72.8,4-90.4c-14-14.4-38.4-15.6-68.4-6.4c-6.8-3.6-14-6.8-21.2-9.6c10-5.6,19.6-10.4,28.8-14.8
			c45.6-20.8,82.4-24.8,99.6-7.2c16.8,17.2,12,54-9.6,99.2C380.749,176.919,339.549,233.319,285.149,286.519z"/>
	</g>
</g>
<g>
</g>
<g>
</g>
<g>
</g>
<g>
</g>
<g>
</g>
<g>
</g>
<g>
</g>
<g>
</g>
<g>
</g>
<g>
</g>
<g>
</g>
<g>
</g>
<g>
</g>
<g>
</g>
<g>
</g>
</svg>
